<mxfile host="app.diagrams.net" modified="2024-01-30T11:49:53.750Z" agent="Mozilla/5.0 (Macintosh; Intel Mac OS X 10_15_7) AppleWebKit/537.36 (KHTML, like Gecko) Chrome/121.0.0.0 Safari/537.36" version="21.7.5" etag="svuLrS9qtv5STw9pCFPQ" type="github">
  <diagram name="Page-1" id="hIceaoWqDKeVBD2IQ5cP">
    <mxGraphModel>
      <root>
        <mxCell id="0" />
        <mxCell id="1" parent="0" />
      </root>
    </mxGraphModel>
  </diagram>
</mxfile>
